<svg id="Layer_1" data-name="Layer 1" xmlns="http://www.w3.org/2000/svg" viewBox="0 0 215 199"><path d="M103.87,9.46s61.28-1,83.61,22.82,0,46.39,0,46.39-16,22.88,1.72,36.08C211,131,178.84,219.32,60.91,178.57c-89.34-30.86-46.36-83.37-5.07-93.52,17.38-4.27,9.58-10.57,5.07-14.4C52.52,63.45,13.9,19.52,103.87,9.46Z" fill="#f3f9fa"/><path d="M51.52,91h98.66a9.59,9.59,0,0,1,9.88,9.25l18.14,59.83a9.59,9.59,0,0,1-9.89,9.25H73.18a9.6,9.6,0,0,1-9.9-9.25L45.14,97A6.2,6.2,0,0,1,51.52,91Z" fill="#ffe1a8"/><rect x="42.68" y="81.7" width="114.09" height="17.2" rx="7.76" fill="#d9ebf9"/><rect x="25.6" y="53.63" width="112.89" height="17.2" rx="7.76" fill="#d9ebf9"/><rect x="42.68" y="116.1" width="81.89" height="17.2" rx="7.76" fill="#d9ebf9"/><path d="M118.39,76.24h0a5.16,5.16,0,0,1,4.84-5.43H48.82a5.16,5.16,0,0,1,4.84,5.43h0a5.17,5.17,0,0,1-4.84,5.43h74.41A5.17,5.17,0,0,1,118.39,76.24Z" fill="#d9ebf9"/><path d="M104.78,107.5h0c0-4.76,3.44-8.6,7.66-8.6H55.63c4.24,0,7.68,3.84,7.68,8.6h0c0,4.74-3.44,8.6-7.68,8.6h56.88C108.22,116.1,104.78,112.24,104.78,107.5Z" fill="#d9ebf9"/><path d="M85.16,110.75s-1.08-.58-2.87-1.63" fill="none" stroke="#577b91" stroke-miterlimit="10"/><path d="M76.47,105.58C59.78,95,28,71.42,65.34,63.87c6.61-1.32,8.85,1.51,9.14,5.43.62,8.7-7.92,15.37-16.84,13.39C46.33,80.2,32.82,72.5,39.31,49.48,44.13,32.49,56,27.85,84.7,33.63" fill="none" stroke="#577b91" stroke-miterlimit="10" stroke-dasharray="5.15 5.15"/><path d="M88.08,34.35l3.22.74" fill="none" stroke="#577b91" stroke-miterlimit="10"/><path d="M174,87.28H113.2A7.71,7.71,0,0,0,105.6,81H78a10,10,0,0,0-10,10v7.4l-5,61.18a10,10,0,0,0,10,10h96a10.05,10.05,0,0,0,10-10l5-62.2a10,10,0,0,0-10-10.1Z" fill="#f3bf3d"/><ellipse cx="105.5" cy="33.21" rx="2.1" ry="7.23" transform="translate(3 74.76) rotate(-39.54)" fill="#e3eef3"/><ellipse cx="103.42" cy="37.24" rx="3.08" ry="9.24" transform="translate(47.28 131.74) rotate(-79.09)" fill="#cadef3"/><ellipse cx="102.24" cy="33.21" rx="2.1" ry="7.23" transform="translate(10.28 88.89) rotate(-49.19)" fill="#bed5e9"/></svg>