<?xml version="1.0" encoding="utf-8"?>
<!-- Generator: Adobe Illustrator 26.0.1, SVG Export Plug-In . SVG Version: 6.00 Build 0)  -->
<svg version="1.2" baseProfile="tiny" id="Layer_1" xmlns="http://www.w3.org/2000/svg" xmlns:xlink="http://www.w3.org/1999/xlink"
	 x="0px" y="0px" viewBox="0 0 50 50" overflow="visible" xml:space="preserve">
<rect fill="#EDEDED" width="50" height="50"/>
<g>
	<path fill="#A3A3A3" d="M36.232,12.5H17.768C15.135,12.5,13,14.635,13,17.268v10.3l7.679-5.658
		c0.587-0.433,1.412-0.317,1.857,0.261l4.439,5.761c0.416,0.541,1.172,0.682,1.756,0.329l4.898-2.966
		c0.851-0.515,1.922-0.498,2.755,0.045L41,28.346V17.268C41,14.635,38.865,12.5,36.232,12.5z M29.209,23.9
		c-1.376,0-2.491-1.115-2.491-2.491c0-1.376,1.115-2.491,2.491-2.491s2.491,1.115,2.491,2.491C31.7,22.784,30.584,23.9,29.209,23.9z
		"/>
	<path fill="#F9F9F9" d="M33.629,25.296l-4.898,2.966c-0.584,0.353-1.34,0.212-1.756-0.329l-4.439-5.761
		c-0.445-0.578-1.27-0.694-1.857-0.261L13,27.568v1.164c0,2.633,2.135,4.768,4.768,4.768h18.464c2.633,0,4.768-2.135,4.768-4.768
		v-0.386l-4.616-3.005C35.551,24.798,34.48,24.781,33.629,25.296z"/>
	<path fill="#F9F9F9" d="M29.209,18.917c-1.376,0-2.491,1.115-2.491,2.491c0,1.376,1.115,2.491,2.491,2.491s2.491-1.115,2.491-2.491
		C31.7,20.033,30.584,18.917,29.209,18.917z"/>
</g>
<g>
	<circle fill="#EDEDED" stroke="#A3A3A3" stroke-width="2" stroke-miterlimit="10" cx="14.75" cy="29.75" r="5.25"/>
	<line fill="#EDEDED" stroke="#A3A3A3" stroke-width="2" stroke-miterlimit="10" x1="10.534" y1="32.875" x2="18.675" y2="26.264"/>
</g>
</svg>
